<svg xmlns="http://www.w3.org/2000/svg" viewBox="0 0 248 60" role="img" aria-label="mega bilişim teknolojileri">
  <!-- PLACEHOLDER lockup. Real Centrale-Sans wordmark + Buka chameleon SVG drops in here.
       Proportions/colour follow the locked lockup: white on blue/dark grounds. -->
  <g fill="#ffffff">
    <!-- Buka the chameleon (stylised, spiral tail + crest + eye punch-out) -->
    <path fill-rule="evenodd" d="
      M14 44
      c-5 0 -8 -4 -8 -8 c0 -5 4 -9 9 -9 c3 0 5 1 7 3
      c-1 -3 -1 -6 0 -9 c2 -8 9 -14 18 -14 c8 0 14 4 17 11
      l6 -4 c2 -1 4 1 3 3 l-4 7
      c1 4 0 8 -3 11 c4 1 7 5 7 9 c0 6 -5 10 -11 10
      c-4 0 -7 -2 -9 -5 l4 -2 c1 2 3 3 5 3 c3 0 5 -2 5 -5
      c0 -3 -2 -5 -5 -5 c-2 0 -4 1 -5 3
      c-3 5 -8 8 -14 8 c-2 0 -4 0 -6 -1
      c-2 2 -5 4 -8 4 z
      M44 24 m-4 0 a4 4 0 1 0 8 0 a4 4 0 1 0 -8 0 z
    "/>
    <!-- crest spikes -->
    <path d="M40 11 l4 -7 l2 7 z M47 11 l5 -6 l1 7 z"/>
    <!-- legs -->
    <path d="M30 41 l-2 9 l3 0 l2 -8 z M40 43 l1 9 l3 0 l-1 -9 z"/>
  </g>
  <!-- wordmark -->
  <text x="78" y="38" fill="#ffffff" font-family="'Centrale Sans','Hanken Grotesk',system-ui,sans-serif" font-size="34" font-weight="800" letter-spacing="-1.2">mega</text>
  <text x="80" y="52" fill="#ffffff" fill-opacity="0.82" font-family="'Centrale Sans','Hanken Grotesk',system-ui,sans-serif" font-size="9.5" font-weight="700" letter-spacing="3.4">BİLİŞİM TEKNOLOJİLERİ</text>
</svg>
